<svg width="1268" height="2376" fill="none" xmlns="http://www.w3.org/2000/svg"><path d="M177 2376v.5h.5v-.5h-.5Zm-136 0h-.5v.5h.5v-.5ZM1244 490h.5v-.5h-.5v.5ZM910 824h-.5v.5h.5v-.5Zm334 0v.5h.5v-.5h-.5Zm0 1060h.5v-.5h-.5v.5Zm-334 334h-.5v.5h.5v-.5Zm334 0v.5h.5v-.5h-.5Zm-886-630v.5h.5v-.5h-.5ZM24 1254v-.5h-.5v.5h.5Zm0 334h-.5v.5h.5v-.5Zm192.5-738c0 59.371-48.129 107.5-107.5 107.5v1c59.923 0 108.5-48.577 108.5-108.5h-1ZM109 957.5C49.63 957.5 1.5 909.371 1.5 850h-1c0 59.923 48.577 108.5 108.5 108.5v-1ZM1.5 850c0-59.371 48.13-107.5 107.5-107.5v-1C49.077 741.5.5 790.077.5 850h1ZM109 742.5c59.371 0 107.5 48.129 107.5 107.5h1c0-59.923-48.577-108.5-108.5-108.5v1ZM216.5 2376c0 59.37-48.129 107.5-107.5 107.5v1c59.923 0 108.5-48.58 108.5-108.5h-1ZM109 2483.5c-59.37 0-107.5-48.13-107.5-107.5h-1c0 59.92 48.577 108.5 108.5 108.5v-1ZM1.5 2376c0-59.37 48.13-107.5 107.5-107.5v-1C49.077 2267.5.5 2316.08.5 2376h1ZM109 2268.5c59.371 0 107.5 48.13 107.5 107.5h1c0-59.92-48.577-108.5-108.5-108.5v1ZM1266.5 1375c0 59.37-48.13 107.5-107.5 107.5v1c59.92 0 108.5-48.58 108.5-108.5h-1ZM1159 1482.5c-59.37 0-107.5-48.13-107.5-107.5h-1c0 59.92 48.58 108.5 108.5 108.5v-1ZM1051.5 1375c0-59.37 48.13-107.5 107.5-107.5v-1c-59.92 0-108.5 48.58-108.5 108.5h1Zm107.5-107.5c59.37 0 107.5 48.13 107.5 107.5h1c0-59.92-48.58-108.5-108.5-108.5v1ZM176.5 850c0 37.279-30.221 67.5-67.5 67.5v1c37.832 0 68.5-30.668 68.5-68.5h-1ZM109 917.5c-37.28 0-67.5-30.221-67.5-67.5h-1c0 37.832 30.668 68.5 68.5 68.5v-1ZM41.5 850c0-37.279 30.22-67.5 67.5-67.5v-1c-37.832 0-68.5 30.668-68.5 68.5h1Zm67.5-67.5c37.279 0 67.5 30.221 67.5 67.5h1c0-37.832-30.668-68.5-68.5-68.5v1ZM177.5 2376c0-9-1.772-17.9-5.214-26.21l-.924.38A67.516 67.516 0 0 1 176.5 2376h1Zm-5.214-26.21a68.535 68.535 0 0 0-14.849-22.23l-.707.71a67.518 67.518 0 0 1 14.632 21.9l.924-.38Zm-14.849-22.23a68.636 68.636 0 0 0-22.223-14.85l-.383.93a67.423 67.423 0 0 1 21.899 14.63l.707-.71Zm-22.223-14.85A68.542 68.542 0 0 0 109 2307.5v1c8.864 0 17.642 1.75 25.831 5.14l.383-.93ZM109 2307.5a68.54 68.54 0 0 0-26.214 5.21l.383.93A67.543 67.543 0 0 1 109 2308.5v-1Zm-26.214 5.21a68.636 68.636 0 0 0-22.223 14.85l.707.71a67.426 67.426 0 0 1 21.899-14.63l-.383-.93Zm-22.223 14.85a68.53 68.53 0 0 0-14.849 22.23l.924.38a67.522 67.522 0 0 1 14.632-21.9l-.707-.71Zm-14.849 22.23A68.462 68.462 0 0 0 40.5 2376h1c0-8.86 1.746-17.64 5.138-25.83l-.924-.38ZM1226.5 1375c0 37.28-30.22 67.5-67.5 67.5v1c37.83 0 68.5-30.67 68.5-68.5h-1Zm-67.5 67.5c-37.28 0-67.5-30.22-67.5-67.5h-1c0 37.83 30.67 68.5 68.5 68.5v-1Zm-67.5-67.5c0-37.28 30.22-67.5 67.5-67.5v-1c-37.83 0-68.5 30.67-68.5 68.5h1Zm67.5-67.5c37.28 0 67.5 30.22 67.5 67.5h1c0-37.83-30.67-68.5-68.5-68.5v1Zm85-818a334.53 334.53 0 0 0-128.01 25.462l.39.924A333.451 333.451 0 0 1 1244 490.5v-1Zm-128.01 25.462a334.543 334.543 0 0 0-108.52 72.511l.71.707a333.46 333.46 0 0 1 108.2-72.294l-.39-.924Zm-108.52 72.511a334.538 334.538 0 0 0-72.507 108.519l.923.383a333.504 333.504 0 0 1 72.294-108.195l-.71-.707Zm-72.507 108.519A334.49 334.49 0 0 0 909.5 824h1c0-43.796 8.626-87.163 25.386-127.625l-.923-.383ZM910 824.5h334v-1H910v1Zm334.5-.5V490h-1v334h1Zm-.5 1059.5c-43.93 0-87.42 8.65-128.01 25.46l.39.93A333.455 333.455 0 0 1 1244 1884.5v-1Zm-128.01 25.46a334.54 334.54 0 0 0-108.52 72.51l.71.71a333.418 333.418 0 0 1 108.2-72.29l-.39-.93Zm-108.52 72.51a334.563 334.563 0 0 0-72.507 108.52l.923.39a333.46 333.46 0 0 1 72.294-108.2l-.71-.71Zm-72.507 108.52A334.512 334.512 0 0 0 909.5 2218h1c0-43.8 8.626-87.16 25.386-127.62l-.923-.39ZM910 2218.5h334v-1H910v1Zm334.5-.5v-334h-1v334h1Zm-886-630c0-43.93-8.652-87.42-25.462-128.01l-.924.39A333.451 333.451 0 0 1 357.5 1588h1Zm-25.462-128.01a334.527 334.527 0 0 0-72.511-108.52l-.707.71a333.46 333.46 0 0 1 72.294 108.2l.924-.39Zm-72.511-108.52a334.514 334.514 0 0 0-108.519-72.51l-.383.93a333.46 333.46 0 0 1 108.195 72.29l.707-.71Zm-108.519-72.51A334.505 334.505 0 0 0 24 1253.5v1c43.796 0 87.163 8.63 127.625 25.39l.383-.93ZM23.5 1254v334h1v-334h-1Zm.5 334.5h334v-1H24v1ZM109 0v742h1V0h-1Zm0 958v1310h1V958h-1ZM1159 0v1267h1V0h-1Zm0 1483v893h1v-893h-1ZM41 2376.5h136v-1H41v1Z" fill="#212121"/></svg>