<svg width="768" height="2946" fill="none" xmlns="http://www.w3.org/2000/svg"><path d="m144.08 556.408.461.194-.461-.194ZM61.592 590.08l.194-.461-.194.461ZM27.92 507.592l.461.194-.46-.194Zm82.488-33.672.194-.461-.194.461ZM263 1822.5v.5h.5v-.5h-.5Zm-18.079-90.89-.462.19.462-.19Zm-51.483-77.05.353-.35-.353.35Zm-77.051-51.48-.191.46.191-.46ZM25.5 1585v-.5H25v.5h.5Zm0 237.5H25v.5h.5v-.5ZM742.5 784h.5v-.5h-.5v.5Zm-90.887 18.079.191.462-.191-.462Zm-77.051 51.483-.353-.353.353.353Zm-51.483 77.051.462.191-.462-.191ZM505 1021.5h-.5v.5h.5v-.5Zm237.5 0v.5h.5v-.5h-.5Zm0 1489.5h.5v-.5h-.5v.5Zm-90.887 18.08.191.46-.191-.46Zm-77.051 51.48-.353-.35.353.35Zm-51.483 77.05.462.19-.462-.19ZM505 2748.5h-.5v.5h.5v-.5Zm237.5 0v.5h.5v-.5h-.5ZM126 2946v.5h.5v-.5h-.5Zm-3.045-15.31.462-.19-.462.19Zm-8.671-12.97.354-.36-.354.36Zm-12.977-8.68.192-.46-.192.46ZM86 2906v.5-.5Zm-15.307 3.04.191.47-.191-.47Zm-21.648 21.65-.462-.19.462.19ZM46 2946h-.5v.5h.5v-.5ZM0 364v-.5h-.5v.5H0Zm768 0h.5v-.5h-.5v.5Zm0 2582v.5h.5v-.5h-.5Zm-768 0h-.5v.5H0v-.5ZM143.619 556.214c-13.373 31.822-50.011 46.778-81.833 33.405l-.388.922c32.331 13.587 69.556-1.608 83.143-33.939l-.922-.388Zm-81.833 33.405c-31.822-13.373-46.778-50.011-33.405-81.833l-.922-.388c-13.587 32.331 1.608 69.556 33.94 83.143l.387-.922ZM28.38 507.786c13.373-31.822 50.011-46.778 81.833-33.405l.388-.922c-32.332-13.587-69.556 1.608-83.143 33.939l.922.388Zm81.833-33.405c31.822 13.373 46.778 50.011 33.405 81.833l.922.388c13.587-32.332-1.608-69.556-33.939-83.143l-.388.922ZM743.5 1588c0 34.52-27.982 62.5-62.5 62.5v1c35.07 0 63.5-28.43 63.5-63.5h-1Zm-62.5 62.5c-34.518 0-62.5-27.98-62.5-62.5h-1c0 35.07 28.43 63.5 63.5 63.5v-1Zm-62.5-62.5c0-34.52 27.982-62.5 62.5-62.5v-1c-35.07 0-63.5 28.43-63.5 63.5h1Zm62.5-62.5c34.518 0 62.5 27.98 62.5 62.5h1c0-35.07-28.43-63.5-63.5-63.5v1ZM125.5 532c0 21.815-17.685 39.5-39.5 39.5v1c22.368 0 40.5-18.132 40.5-40.5h-1ZM86 571.5c-21.815 0-39.5-17.685-39.5-39.5h-1c0 22.368 18.133 40.5 40.5 40.5v-1ZM46.5 532c0-21.815 17.685-39.5 39.5-39.5v-1c-22.367 0-40.5 18.132-40.5 40.5h1ZM86 492.5c21.815 0 39.5 17.685 39.5 39.5h1c0-22.368-18.132-40.5-40.5-40.5v1ZM720.5 1588c0 21.82-17.685 39.5-39.5 39.5v1c22.368 0 40.5-18.13 40.5-40.5h-1Zm-39.5 39.5c-21.815 0-39.5-17.68-39.5-39.5h-1c0 22.37 18.132 40.5 40.5 40.5v-1Zm-39.5-39.5c0-21.82 17.685-39.5 39.5-39.5v-1c-22.368 0-40.5 18.13-40.5 40.5h1Zm39.5-39.5c21.815 0 39.5 17.68 39.5 39.5h1c0-22.37-18.132-40.5-40.5-40.5v1Zm-417.5 274c0-31.25-6.156-62.2-18.117-91.08l-.924.38a237.043 237.043 0 0 1 18.041 90.7h1Zm-18.117-91.08a238.023 238.023 0 0 0-51.592-77.21l-.707.71a236.915 236.915 0 0 1 51.375 76.88l.924-.38Zm-51.592-77.21a237.989 237.989 0 0 0-77.212-51.59l-.383.92a236.963 236.963 0 0 1 76.888 51.38l.707-.71Zm-77.212-51.59A238.018 238.018 0 0 0 25.5 1584.5v1c31.123 0 61.942 6.13 90.696 18.04l.383-.92ZM25 1585v237.5h1V1585h-1Zm.5 238H263v-1H25.5v1Zm717-1039.5a237.995 237.995 0 0 0-91.079 18.117l.383.924A236.99 236.99 0 0 1 742.5 784.5v-1Zm-91.079 18.117a237.978 237.978 0 0 0-77.212 51.592l.707.707a236.98 236.98 0 0 1 76.888-51.375l-.383-.924Zm-77.212 51.592a237.978 237.978 0 0 0-51.592 77.212l.924.383a236.98 236.98 0 0 1 51.375-76.888l-.707-.707Zm-51.592 77.212A237.995 237.995 0 0 0 504.5 1021.5h1a236.99 236.99 0 0 1 18.041-90.696l-.924-.383ZM505 1022h237.5v-1H505v1Zm238-.5V784h-1v237.5h1Zm-.5 1489c-31.255 0-62.203 6.16-91.079 18.12l.383.92a237.007 237.007 0 0 1 90.696-18.04v-1Zm-91.079 18.12a237.989 237.989 0 0 0-77.212 51.59l.707.71a236.963 236.963 0 0 1 76.888-51.38l-.383-.92Zm-77.212 51.59a238.023 238.023 0 0 0-51.592 77.21l.924.38a236.915 236.915 0 0 1 51.375-76.88l-.707-.71Zm-51.592 77.21a238.034 238.034 0 0 0-18.117 91.08h1c0-31.12 6.13-61.94 18.041-90.7l-.924-.38ZM505 2749h237.5v-1H505v1Zm238-.5V2511h-1v237.5h1ZM148.5 2946c0 34.52-27.982 62.5-62.5 62.5v1c35.07 0 63.5-28.43 63.5-63.5h-1ZM86 3008.5c-34.518 0-62.5-27.98-62.5-62.5h-1c0 35.07 28.43 63.5 63.5 63.5v-1ZM23.5 2946c0-34.52 27.982-62.5 62.5-62.5v-1c-35.07 0-63.5 28.43-63.5 63.5h1Zm62.5-62.5c34.518 0 62.5 27.98 62.5 62.5h1c0-35.07-28.43-63.5-63.5-63.5v1Zm40.5 62.5c0-5.32-1.048-10.59-3.083-15.5l-.924.38A39.54 39.54 0 0 1 125.5 2946h1Zm-3.083-15.5a40.525 40.525 0 0 0-8.779-13.14l-.707.71a39.524 39.524 0 0 1 8.562 12.81l.924-.38Zm-8.779-13.14a40.598 40.598 0 0 0-13.139-8.78l-.383.93a39.385 39.385 0 0 1 12.815 8.56l.707-.71Zm-13.139-8.78A40.6 40.6 0 0 0 86 2905.5v1a39.41 39.41 0 0 1 15.116 3.01l.383-.93ZM86 2905.5a40.597 40.597 0 0 0-15.499 3.08l.383.93A39.41 39.41 0 0 1 86 2906.5v-1Zm-15.499 3.08a40.588 40.588 0 0 0-13.139 8.78l.707.71a39.379 39.379 0 0 1 12.815-8.56l-.383-.93Zm-13.139 8.78a40.534 40.534 0 0 0-8.78 13.14l.925.38a39.527 39.527 0 0 1 8.562-12.81l-.707-.71Zm-8.78 13.14A40.488 40.488 0 0 0 45.5 2946h1c0-5.19 1.022-10.32 3.007-15.12l-.924-.38ZM0 364.5h768v-1H0v1Zm767.5-.5v2582h1V364h-1Zm.5 2581.5H0v1h768v-1ZM.5 2946V364h-1v2582h1ZM86 0v469h1V0h-1Zm0 595v2288h1V595h-1ZM681 0v1525h1V0h-1Zm0 1651v1295h1V1651h-1ZM46 2946.5h80v-1H46v1Z" fill="#212121"/></svg>