<svg aria-hidden="true" style="width:0;height:0;position:absolute;overflow:hidden" xmlns="http://www.w3.org/2000/svg"><defs><symbol id="icon-polygon" viewBox="0 0 52 32"><path d="M26 32 .019 2h51.962L26 32z"/></symbol><symbol id="icon-search" viewBox="0 0 32 32"><path d="M4.024 4.024C6.619 1.429 10.069 0 13.739 0s7.12 1.429 9.715 4.024a13.649 13.649 0 0 1 4.024 9.715 13.64 13.64 0 0 1-3.383 9.029l7.63 7.63a.94.94 0 0 1-1.327 1.327l-7.63-7.63a13.635 13.635 0 0 1-9.029 3.383c-3.67 0-7.12-1.429-9.715-4.024S0 17.409 0 13.739s1.429-7.12 4.024-9.715zm1.327 18.103c4.625 4.625 12.15 4.625 16.775 0s4.625-12.15 0-16.775c-2.313-2.313-5.35-3.469-8.388-3.469S7.663 3.04 5.35 5.352c-4.625 4.625-4.625 12.15 0 16.775z"/></symbol><symbol id="logo" viewBox="0 0 38 32"><path style="fill:var(--color2,#000)" opacity=".03" d="M.08 32c4.986 0 9.924-.828 14.531-2.436s8.793-3.965 12.318-6.937c3.526-2.971 6.323-6.499 8.231-10.381S38.05 4.202 38.05 0H.08v32z"/><path fill="#fff" style="fill:var(--color3,#fff)" d="M13.122 14.533c-.203-.565-.621-.847-1.255-.848h-.2v3.484h.2c.489 0 .851-.193 1.084-.579.196-.329.294-.748.294-1.257 0-.303-.042-.57-.124-.801zM9.693 14.574c.203.565.622.847 1.254.847h.2v-3.484h-.2c-.489 0-.851.193-1.084.579-.196.329-.294.748-.294 1.257 0 .302.041.569.123.801zM6.368 6.373h2.658v.923H7.322v.461h1.416v.876H7.322V9.1h1.704v.923H6.368V6.374zM10.363 6.368h3.44l-1.72 3.728-1.72-3.728zm1.72 3.267 1.421-3.073h-2.837l1.416 3.073zM15.177 6.373h2.658v.923h-1.704v.461h1.416v.876h-1.416V9.1h1.704v.923h-2.658V6.374zM19.471 10.017V6.369h.205l2.548 2.48v-2.48h.194v3.649l-2.947-.001zM25.202 10.022V7.295h-1.379v-.923h2.947v.923h-1.379v2.727h-.189zM7.936 12.665c.231 0 .414.035.551.105a.917.917 0 0 1 .514.839.878.878 0 0 1-.136.475.966.966 0 0 1-.372.343c.189.067.355.187.477.346a.877.877 0 0 1 .194.556.951.951 0 0 1-.139.501c-.09.15-.217.273-.37.359a.979.979 0 0 1-.257.094c-.094.021-.22.031-.377.031H6.406v-3.649h1.531zM14.084 16.049c-.274-.239-.41-.599-.406-1.078h.855c-.004.199.056.351.178.456s.294.157.514.157c.182 0 .325-.03.43-.089s.157-.15.157-.273c0-.101-.053-.175-.16-.22a1.528 1.528 0 0 0-.317-.097l-.194-.035a4.18 4.18 0 0 1-.697-.192c-.19-.071-.36-.188-.493-.341s-.199-.357-.199-.608.066-.466.199-.642c.133-.177.31-.309.532-.396a1.96 1.96 0 0 1 .726-.131c.318 0 .593.059.826.178s.415.299.548.54a.903.903 0 0 1 .121.333c.014.103.021.208.021.312h-.855c0-.189-.051-.328-.152-.417s-.259-.134-.472-.134c-.171 0-.304.03-.399.089s-.142.14-.142.241c0 .112.063.194.189.246.155.061.314.108.477.142.315.063.56.123.737.181.178.059.337.165.459.307.129.147.194.353.194.619 0 .252-.07.468-.21.65s-.324.321-.553.417a1.904 1.904 0 0 1-.742.144c-.507-.001-.897-.121-1.172-.36zM18.91 16.314v-2.726h-1.379v-.923h2.947v.923h-1.379v2.726h-.189zM21.469 12.665h2.658v.923h-1.704v.461h1.416v.876h-1.416v.467h1.704v.923h-2.658v-3.649zM28.065 16.314H25.26v-3.649h1.421c.304 0 .552.054.745.163.184.1.336.249.44.43.105.183.16.392.157.603.003.265-.086.524-.252.731a1.177 1.177 0 0 1-.634.427l.928 1.295zm-2.612-3.33v1.882h1.348l-1.348-1.882zm0 3.136h2.244l-.765-1.064-.163.005h-1.316v1.059zm.137-3.262 1.426 1.992c.229-.046.435-.17.582-.351a.978.978 0 0 0 .231-.64.997.997 0 0 0-.142-.524.935.935 0 0 0-.398-.362c-.154-.077-.355-.115-.603-.115H25.59z"/></symbol></defs></svg>