<svg aria-hidden="true" style="width:0;height:0;position:absolute;overflow:hidden" xmlns="http://www.w3.org/2000/svg"><defs><symbol id="icon-polygon" viewBox="0 0 52 32"><path d="M26 32 .019 2h51.962L26 32z"/></symbol><symbol id="icon-search" viewBox="0 0 32 32"><path d="M4.024 4.024C6.619 1.429 10.069 0 13.739 0s7.12 1.429 9.715 4.024a13.649 13.649 0 0 1 4.024 9.715 13.64 13.64 0 0 1-3.383 9.029l7.63 7.63a.94.94 0 0 1-1.327 1.327l-7.63-7.63a13.635 13.635 0 0 1-9.029 3.383c-3.67 0-7.12-1.429-9.715-4.024S0 17.409 0 13.739s1.429-7.12 4.024-9.715zm1.327 18.103c4.625 4.625 12.15 4.625 16.775 0s4.625-12.15 0-16.775c-2.313-2.313-5.35-3.469-8.388-3.469S7.663 3.04 5.35 5.352c-4.625 4.625-4.625 12.15 0 16.775z"/></symbol><symbol id="logo" viewBox="0 0 38 32"><path style="fill:var(--color2,#000)" opacity=".03" d="M.08 32c4.986 0 9.924-.828 14.531-2.436s8.793-3.965 12.318-6.937c3.526-2.971 6.323-6.499 8.231-10.381S38.05 4.202 38.05 0H.08v32z"/><path fill="#fff" style="fill:var(--color3,#fff)" d="M13.122 14.533c-.203-.565-.621-.847-1.255-.848h-.2v3.484h.2c.489 0 .851-.193 1.084-.579.196-.329.294-.748.294-1.257 0-.303-.042-.57-.124-.801zM9.693 14.574c.203.565.622.847 1.254.847h.2v-3.484h-.2c-.489 0-.851.193-1.084.579-.196.329-.294.748-.294 1.257 0 .302.041.569.123.801zM6.368 6.373h2.658v.923H7.322v.461h1.416v.876H7.322V9.1h1.704v.923H6.368V6.374zM10.363 6.368h3.44l-1.72 3.728-1.72-3.728zm1.72 3.267 1.421-3.073h-2.837l1.416 3.073zM15.177 6.373h2.658v.923h-1.704v.461h1.416v.876h-1.416V9.1h1.704v.923h-2.658V6.374zM19.471 10.017V6.369h.205l2.548 2.48v-2.48h.194v3.649l-2.947-.001zM25.202 10.022V7.295h-1.379v-.923h2.947v.923h-1.379v2.727h-.189zM7.936 12.665c.231 0 .414.035.551.105a.917.917 0 0 1 .514.839.878.878 0 0 1-.136.475.966.966 0 0 1-.372.343c.189.067.355.187.477.346a.877.877 0 0 1 .194.556.951.951 0 0 1-.139.501c-.09.15-.217.273-.37.359a.979.979 0 0 1-.257.094c-.094.021-.22.031-.377.031H6.406v-3.649h1.531zM14.084 16.049c-.274-.239-.41-.599-.406-1.078h.855c-.004.199.056.351.178.456s.294.157.514.157c.182 0 .325-.03.43-.089s.157-.15.157-.273c0-.101-.053-.175-.16-.22a1.528 1.528 0 0 0-.317-.097l-.194-.035a4.18 4.18 0 0 1-.697-.192c-.19-.071-.36-.188-.493-.341s-.199-.357-.199-.608.066-.466.199-.642c.133-.177.31-.309.532-.396a1.96 1.96 0 0 1 .726-.131c.318 0 .593.059.826.178s.415.299.548.54a.903.903 0 0 1 .121.333c.014.103.021.208.021.312h-.855c0-.189-.051-.328-.152-.417s-.259-.134-.472-.134c-.171 0-.304.03-.399.089s-.142.14-.142.241c0 .112.063.194.189.246.155.061.314.108.477.142.315.063.56.123.737.181.178.059.337.165.459.307.129.147.194.353.194.619 0 .252-.07.468-.21.65s-.324.321-.553.417a1.904 1.904 0 0 1-.742.144c-.507-.001-.897-.121-1.172-.36zM18.91 16.314v-2.726h-1.379v-.923h2.947v.923h-1.379v2.726h-.189zM21.469 12.665h2.658v.923h-1.704v.461h1.416v.876h-1.416v.467h1.704v.923h-2.658v-3.649zM28.065 16.314H25.26v-3.649h1.421c.304 0 .552.054.745.163.184.1.336.249.44.43.105.183.16.392.157.603.003.265-.086.524-.252.731a1.177 1.177 0 0 1-.634.427l.928 1.295zm-2.612-3.33v1.882h1.348l-1.348-1.882zm0 3.136h2.244l-.765-1.064-.163.005h-1.316v1.059zm.137-3.262 1.426 1.992c.229-.046.435-.17.582-.351a.978.978 0 0 0 .231-.64.997.997 0 0 0-.142-.524.935.935 0 0 0-.398-.362c-.154-.077-.355-.115-.603-.115H25.59z"/></symbol><symbol id="icon-github" viewBox="0 0 32 32"><path d="M16 .395c-8.836 0-16 7.163-16 16 0 7.069 4.585 13.067 10.942 15.182.8.148 1.094-.347 1.094-.77 0-.381-.015-1.642-.022-2.979-4.452.968-5.391-1.888-5.391-1.888-.728-1.849-1.776-2.341-1.776-2.341-1.452-.993.11-.973.11-.973 1.606.113 2.452 1.649 2.452 1.649 1.427 2.446 3.743 1.739 4.656 1.33.143-1.034.558-1.74 1.016-2.14-3.554-.404-7.29-1.777-7.29-7.907 0-1.747.625-3.174 1.649-4.295-.166-.403-.714-2.03.155-4.234 0 0 1.344-.43 4.401 1.64a15.353 15.353 0 0 1 4.005-.539c1.359.006 2.729.184 4.008.539 3.054-2.07 4.395-1.64 4.395-1.64.871 2.204.323 3.831.157 4.234 1.026 1.12 1.647 2.548 1.647 4.295 0 6.145-3.743 7.498-7.306 7.895.574.497 1.085 1.47 1.085 2.963 0 2.141-.019 3.864-.019 4.391 0 .426.288.925 1.099.768C27.421 29.457 32 23.462 32 16.395c0-8.837-7.164-16-16-16z"/></symbol><symbol id="icon-linkedin" viewBox="0 0 32 32"><path d="M31.992 32v-.001H32V20.263c0-5.741-1.236-10.164-7.948-10.164-3.227 0-5.392 1.771-6.276 3.449h-.093v-2.913h-6.364v21.364h6.627V21.42c0-2.785.528-5.479 3.977-5.479 3.399 0 3.449 3.179 3.449 5.657v10.401h6.62zM.528 10.636h6.635V32H.528V10.636zM3.843 0C1.722 0 0 1.721 0 3.843s1.721 3.879 3.843 3.879c2.121 0 3.843-1.757 3.843-3.879A3.846 3.846 0 0 0 3.843 0z"/></symbol><symbol id="icon-twitter" viewBox="0 0 32 32"><path d="M32 6.078c-1.19.522-2.458.868-3.78 1.036a6.523 6.523 0 0 0 2.886-3.626 13.11 13.11 0 0 1-4.16 1.588A6.574 6.574 0 0 0 22.154 3c-3.632 0-6.556 2.948-6.556 6.562 0 .52.044 1.02.152 1.496-5.454-.266-10.28-2.88-13.522-6.862a6.605 6.605 0 0 0-.898 3.316 6.57 6.57 0 0 0 2.914 5.452 6.479 6.479 0 0 1-2.964-.808v.072c0 3.188 2.274 5.836 5.256 6.446a6.548 6.548 0 0 1-1.72.216 5.8 5.8 0 0 1-1.242-.112c.85 2.598 3.262 4.508 6.13 4.57a13.182 13.182 0 0 1-8.134 2.798c-.538 0-1.054-.024-1.57-.09A18.469 18.469 0 0 0 10.064 29c12.072 0 18.672-10 18.672-18.668 0-.29-.01-.57-.024-.848A13.087 13.087 0 0 0 32 6.078z"/></symbol></defs></svg>