<svg width="768" height="2946" viewBox="0 0 768 2946" fill="none" xmlns="http://www.w3.org/2000/svg">
<path d="M144.08 556.408L144.541 556.602L144.08 556.408ZM61.5921 590.08L61.7858 589.619L61.5921 590.08ZM27.9203 507.592L28.3812 507.786L27.9203 507.592ZM110.408 473.92L110.602 473.459L110.408 473.92ZM263 1822.5V1823H263.5V1822.5H263ZM244.921 1731.61L244.459 1731.8L244.459 1731.8L244.921 1731.61ZM193.438 1654.56L193.791 1654.21L193.791 1654.21L193.438 1654.56ZM116.387 1603.08L116.196 1603.54L116.196 1603.54L116.387 1603.08ZM25.5 1585L25.5 1584.5L25 1584.5L25 1585L25.5 1585ZM25.5 1822.5L25 1822.5L25 1823H25.5V1822.5ZM742.5 784H743V783.5L742.5 783.5L742.5 784ZM651.613 802.079L651.804 802.541L651.804 802.541L651.613 802.079ZM574.562 853.562L574.209 853.209L574.209 853.209L574.562 853.562ZM523.079 930.613L523.541 930.804L523.541 930.804L523.079 930.613ZM505 1021.5L504.5 1021.5L504.5 1022H505V1021.5ZM742.5 1021.5V1022H743V1021.5H742.5ZM742.5 2511H743V2510.5L742.5 2510.5L742.5 2511ZM651.613 2529.08L651.804 2529.54L651.804 2529.54L651.613 2529.08ZM574.562 2580.56L574.209 2580.21L574.209 2580.21L574.562 2580.56ZM523.079 2657.61L523.541 2657.8L523.541 2657.8L523.079 2657.61ZM505 2748.5L504.5 2748.5L504.5 2749H505V2748.5ZM742.5 2748.5V2749H743V2748.5H742.5ZM126 2946V2946.5H126.5V2946H126ZM122.955 2930.69L123.417 2930.5L123.417 2930.5L122.955 2930.69ZM114.284 2917.72L114.638 2917.36L114.638 2917.36L114.284 2917.72ZM101.307 2909.04L101.499 2908.58L101.499 2908.58L101.307 2909.04ZM86 2906L86 2906.5L86 2906ZM70.6927 2909.04L70.884 2909.51L70.884 2909.51L70.6927 2909.04ZM49.0448 2930.69L48.5829 2930.5L48.5829 2930.5L49.0448 2930.69ZM46 2946L45.5 2946L45.5 2946.5H46V2946ZM0 364V363.5H-0.5V364H0ZM768 364H768.5V363.5H768V364ZM768 2946V2946.5H768.5V2946H768ZM0 2946H-0.5V2946.5H0V2946ZM143.619 556.214C130.246 588.036 93.6078 602.992 61.7858 589.619L61.3984 590.541C93.7295 604.128 130.954 588.933 144.541 556.602L143.619 556.214ZM61.7858 589.619C29.9638 576.246 15.0081 539.608 28.3812 507.786L27.4593 507.398C13.8722 539.729 29.0672 576.954 61.3984 590.541L61.7858 589.619ZM28.3812 507.786C41.7544 475.964 78.3922 461.008 110.214 474.381L110.602 473.459C78.2705 459.872 41.0464 475.067 27.4593 507.398L28.3812 507.786ZM110.214 474.381C142.036 487.754 156.992 524.392 143.619 556.214L144.541 556.602C158.128 524.27 142.933 487.046 110.602 473.459L110.214 474.381ZM743.5 1588C743.5 1622.52 715.518 1650.5 681 1650.5V1651.5C716.07 1651.5 744.5 1623.07 744.5 1588H743.5ZM681 1650.5C646.482 1650.5 618.5 1622.52 618.5 1588H617.5C617.5 1623.07 645.93 1651.5 681 1651.5V1650.5ZM618.5 1588C618.5 1553.48 646.482 1525.5 681 1525.5V1524.5C645.93 1524.5 617.5 1552.93 617.5 1588H618.5ZM681 1525.5C715.518 1525.5 743.5 1553.48 743.5 1588H744.5C744.5 1552.93 716.07 1524.5 681 1524.5V1525.5ZM125.5 532C125.5 553.815 107.815 571.5 86 571.5V572.5C108.368 572.5 126.5 554.368 126.5 532H125.5ZM86 571.5C64.1848 571.5 46.5 553.815 46.5 532H45.5C45.5 554.368 63.6325 572.5 86 572.5V571.5ZM46.5 532C46.5 510.185 64.1848 492.5 86 492.5V491.5C63.6325 491.5 45.5 509.632 45.5 532H46.5ZM86 492.5C107.815 492.5 125.5 510.185 125.5 532H126.5C126.5 509.632 108.368 491.5 86 491.5V492.5ZM720.5 1588C720.5 1609.82 702.815 1627.5 681 1627.5V1628.5C703.368 1628.5 721.5 1610.37 721.5 1588H720.5ZM681 1627.5C659.185 1627.5 641.5 1609.82 641.5 1588H640.5C640.5 1610.37 658.632 1628.5 681 1628.5V1627.5ZM641.5 1588C641.5 1566.18 659.185 1548.5 681 1548.5V1547.5C658.632 1547.5 640.5 1565.63 640.5 1588H641.5ZM681 1548.5C702.815 1548.5 720.5 1566.18 720.5 1588H721.5C721.5 1565.63 703.368 1547.5 681 1547.5V1548.5ZM263.5 1822.5C263.5 1791.25 257.344 1760.3 245.383 1731.42L244.459 1731.8C256.37 1760.56 262.5 1791.38 262.5 1822.5H263.5ZM245.383 1731.42C233.423 1702.55 215.892 1676.31 193.791 1654.21L193.084 1654.92C215.092 1676.92 232.549 1703.05 244.459 1731.8L245.383 1731.42ZM193.791 1654.21C171.691 1632.11 145.454 1614.58 116.579 1602.62L116.196 1603.54C144.95 1615.45 171.077 1632.91 193.084 1654.92L193.791 1654.21ZM116.579 1602.62C87.7032 1590.66 56.7546 1584.5 25.5 1584.5L25.5 1585.5C56.6233 1585.5 87.4418 1591.63 116.196 1603.54L116.579 1602.62ZM25 1585L25 1822.5L26 1822.5L26 1585L25 1585ZM25.5 1823H263V1822H25.5V1823ZM742.5 783.5C711.245 783.5 680.297 789.656 651.421 801.617L651.804 802.541C680.558 790.63 711.377 784.5 742.5 784.5L742.5 783.5ZM651.421 801.617C622.546 813.577 596.309 831.108 574.209 853.209L574.916 853.916C596.923 831.908 623.05 814.451 651.804 802.541L651.421 801.617ZM574.209 853.209C552.108 875.309 534.577 901.546 522.617 930.421L523.541 930.804C535.451 902.05 552.908 875.923 574.916 853.916L574.209 853.209ZM522.617 930.421C510.656 959.297 504.5 990.245 504.5 1021.5L505.5 1021.5C505.5 990.377 511.63 959.558 523.541 930.804L522.617 930.421ZM505 1022H742.5V1021H505V1022ZM743 1021.5V784H742V1021.5H743ZM742.5 2510.5C711.245 2510.5 680.297 2516.66 651.421 2528.62L651.804 2529.54C680.558 2517.63 711.377 2511.5 742.5 2511.5L742.5 2510.5ZM651.421 2528.62C622.546 2540.58 596.309 2558.11 574.209 2580.21L574.916 2580.92C596.923 2558.91 623.05 2541.45 651.804 2529.54L651.421 2528.62ZM574.209 2580.21C552.108 2602.31 534.577 2628.55 522.617 2657.42L523.541 2657.8C535.451 2629.05 552.908 2602.92 574.916 2580.92L574.209 2580.21ZM522.617 2657.42C510.656 2686.3 504.5 2717.25 504.5 2748.5L505.5 2748.5C505.5 2717.38 511.63 2686.56 523.541 2657.8L522.617 2657.42ZM505 2749H742.5V2748H505V2749ZM743 2748.5V2511H742V2748.5H743ZM148.5 2946C148.5 2980.52 120.518 3008.5 86 3008.5V3009.5C121.07 3009.5 149.5 2981.07 149.5 2946H148.5ZM86 3008.5C51.4822 3008.5 23.5 2980.52 23.5 2946H22.5C22.5 2981.07 50.9299 3009.5 86 3009.5V3008.5ZM23.5 2946C23.5 2911.48 51.4822 2883.5 86 2883.5V2882.5C50.9299 2882.5 22.5 2910.93 22.5 2946H23.5ZM86 2883.5C120.518 2883.5 148.5 2911.48 148.5 2946H149.5C149.5 2910.93 121.07 2882.5 86 2882.5V2883.5ZM126.5 2946C126.5 2940.68 125.452 2935.41 123.417 2930.5L122.493 2930.88C124.478 2935.68 125.5 2940.81 125.5 2946H126.5ZM123.417 2930.5C121.382 2925.59 118.399 2921.12 114.638 2917.36L113.931 2918.07C117.599 2921.74 120.508 2926.09 122.493 2930.88L123.417 2930.5ZM114.638 2917.36C110.877 2913.6 106.412 2910.62 101.499 2908.58L101.116 2909.51C105.908 2911.49 110.263 2914.4 113.931 2918.07L114.638 2917.36ZM101.499 2908.58C96.585 2906.55 91.3185 2905.5 86 2905.5L86 2906.5C91.1872 2906.5 96.3236 2907.52 101.116 2909.51L101.499 2908.58ZM86 2905.5C80.6815 2905.5 75.415 2906.55 70.5013 2908.58L70.884 2909.51C75.6764 2907.52 80.8128 2906.5 86 2906.5L86 2905.5ZM70.5013 2908.58C65.5876 2910.62 61.1229 2913.6 57.3622 2917.36L58.0693 2918.07C61.7372 2914.4 66.0916 2911.49 70.884 2909.51L70.5013 2908.58ZM57.3622 2917.36C53.6014 2921.12 50.6182 2925.59 48.5829 2930.5L49.5068 2930.88C51.4918 2926.09 54.4014 2921.74 58.0693 2918.07L57.3622 2917.36ZM48.5829 2930.5C46.5476 2935.41 45.5 2940.68 45.5 2946L46.5 2946C46.5 2940.81 47.5217 2935.68 49.5068 2930.88L48.5829 2930.5ZM0 364.5H768V363.5H0V364.5ZM767.5 364V2946H768.5V364H767.5ZM768 2945.5H0V2946.5H768V2945.5ZM0.5 2946V364H-0.5V2946H0.5ZM86 2.4401e-08L86 469L87 469L87 -2.4401e-08L86 2.4401e-08ZM86 595L86.0001 2883L87.0001 2883L87 595L86 595ZM681 2.00115e-08L681 1525L682 1525L682 -2.00115e-08L681 2.00115e-08ZM681 1651L681 2946L682 2946L682 1651L681 1651ZM46 2946.5H126V2945.5H46V2946.5Z" fill="#212121"/>
</svg>
