<svg width="1268" height="2376" viewBox="0 0 1268 2376" fill="none" xmlns="http://www.w3.org/2000/svg">
<path d="M177 2376V2376.5H177.5V2376H177ZM41 2376L40.5 2376L40.5 2376.5H41V2376ZM1244 490H1244.5V489.5L1244 489.5L1244 490ZM910 824L909.5 824L909.5 824.5H910V824ZM1244 824V824.5H1244.5V824H1244ZM1244 1884H1244.5V1883.5L1244 1883.5L1244 1884ZM910 2218L909.5 2218L909.5 2218.5H910V2218ZM1244 2218V2218.5H1244.5V2218H1244ZM358 1588V1588.5H358.5V1588H358ZM24 1254L24 1253.5L23.5 1253.5L23.5 1254L24 1254ZM24 1588L23.5 1588L23.5 1588.5H24V1588ZM216.5 850C216.5 909.371 168.371 957.5 109 957.5V958.5C168.923 958.5 217.5 909.923 217.5 850H216.5ZM109 957.5C49.6294 957.5 1.50003 909.371 1.50003 850H0.500031C0.500031 909.923 49.0771 958.5 109 958.5V957.5ZM1.50003 850C1.50003 790.629 49.6294 742.5 109 742.5V741.5C49.0771 741.5 0.500031 790.077 0.500031 850H1.50003ZM109 742.5C168.371 742.5 216.5 790.629 216.5 850H217.5C217.5 790.077 168.923 741.5 109 741.5V742.5ZM216.5 2376C216.5 2435.37 168.371 2483.5 109 2483.5V2484.5C168.923 2484.5 217.5 2435.92 217.5 2376H216.5ZM109 2483.5C49.6294 2483.5 1.5 2435.37 1.5 2376H0.5C0.5 2435.92 49.0771 2484.5 109 2484.5V2483.5ZM1.5 2376C1.5 2316.63 49.6294 2268.5 109 2268.5V2267.5C49.0771 2267.5 0.5 2316.08 0.5 2376H1.5ZM109 2268.5C168.371 2268.5 216.5 2316.63 216.5 2376H217.5C217.5 2316.08 168.923 2267.5 109 2267.5V2268.5ZM1266.5 1375C1266.5 1434.37 1218.37 1482.5 1159 1482.5V1483.5C1218.92 1483.5 1267.5 1434.92 1267.5 1375H1266.5ZM1159 1482.5C1099.63 1482.5 1051.5 1434.37 1051.5 1375H1050.5C1050.5 1434.92 1099.08 1483.5 1159 1483.5V1482.5ZM1051.5 1375C1051.5 1315.63 1099.63 1267.5 1159 1267.5V1266.5C1099.08 1266.5 1050.5 1315.08 1050.5 1375H1051.5ZM1159 1267.5C1218.37 1267.5 1266.5 1315.63 1266.5 1375H1267.5C1267.5 1315.08 1218.92 1266.5 1159 1266.5V1267.5ZM176.5 850C176.5 887.279 146.279 917.5 109 917.5V918.5C146.832 918.5 177.5 887.832 177.5 850H176.5ZM109 917.5C71.7208 917.5 41.5 887.279 41.5 850H40.5C40.5 887.832 71.1685 918.5 109 918.5V917.5ZM41.5 850C41.5 812.721 71.7208 782.5 109 782.5V781.5C71.1685 781.5 40.5 812.168 40.5 850H41.5ZM109 782.5C146.279 782.5 176.5 812.721 176.5 850H177.5C177.5 812.168 146.832 781.5 109 781.5V782.5ZM177.5 2376C177.5 2367 175.728 2358.1 172.286 2349.79L171.362 2350.17C174.754 2358.36 176.5 2367.14 176.5 2376H177.5ZM172.286 2349.79C168.843 2341.48 163.798 2333.92 157.437 2327.56L156.73 2328.27C162.998 2334.54 167.97 2341.98 171.362 2350.17L172.286 2349.79ZM157.437 2327.56C151.076 2321.2 143.525 2316.16 135.214 2312.71L134.831 2313.64C143.021 2317.03 150.462 2322 156.73 2328.27L157.437 2327.56ZM135.214 2312.71C126.903 2309.27 117.996 2307.5 109 2307.5L109 2308.5C117.864 2308.5 126.642 2310.25 134.831 2313.64L135.214 2312.71ZM109 2307.5C100.004 2307.5 91.097 2309.27 82.7862 2312.71L83.1689 2313.64C91.3583 2310.25 100.136 2308.5 109 2308.5L109 2307.5ZM82.7862 2312.71C74.4754 2316.16 66.924 2321.2 60.5632 2327.56L61.2703 2328.27C67.5382 2322 74.9794 2317.03 83.1689 2313.64L82.7862 2312.71ZM60.5632 2327.56C54.2024 2333.92 49.1567 2341.48 45.7142 2349.79L46.6381 2350.17C50.0303 2341.98 55.0023 2334.54 61.2703 2328.27L60.5632 2327.56ZM45.7142 2349.79C42.2718 2358.1 40.5 2367 40.5 2376L41.5 2376C41.5 2367.14 43.2459 2358.36 46.6381 2350.17L45.7142 2349.79ZM1226.5 1375C1226.5 1412.28 1196.28 1442.5 1159 1442.5V1443.5C1196.83 1443.5 1227.5 1412.83 1227.5 1375H1226.5ZM1159 1442.5C1121.72 1442.5 1091.5 1412.28 1091.5 1375H1090.5C1090.5 1412.83 1121.17 1443.5 1159 1443.5V1442.5ZM1091.5 1375C1091.5 1337.72 1121.72 1307.5 1159 1307.5V1306.5C1121.17 1306.5 1090.5 1337.17 1090.5 1375H1091.5ZM1159 1307.5C1196.28 1307.5 1226.5 1337.72 1226.5 1375H1227.5C1227.5 1337.17 1196.83 1306.5 1159 1306.5V1307.5ZM1244 489.5C1200.07 489.5 1156.58 498.152 1115.99 514.962L1116.38 515.886C1156.84 499.126 1200.2 490.5 1244 490.5L1244 489.5ZM1115.99 514.962C1075.41 531.773 1038.53 556.412 1007.47 587.473L1008.18 588.18C1039.15 557.212 1075.91 532.646 1116.38 515.886L1115.99 514.962ZM1007.47 587.473C976.412 618.534 951.773 655.409 934.963 695.992L935.886 696.375C952.646 655.913 977.212 619.148 1008.18 588.18L1007.47 587.473ZM934.963 695.992C918.152 736.576 909.5 780.073 909.5 824L910.5 824C910.5 780.204 919.126 736.837 935.886 696.375L934.963 695.992ZM910 824.5H1244V823.5H910V824.5ZM1244.5 824V490H1243.5V824H1244.5ZM1244 1883.5C1200.07 1883.5 1156.58 1892.15 1115.99 1908.96L1116.38 1909.89C1156.84 1893.13 1200.2 1884.5 1244 1884.5L1244 1883.5ZM1115.99 1908.96C1075.41 1925.77 1038.53 1950.41 1007.47 1981.47L1008.18 1982.18C1039.15 1951.21 1075.91 1926.65 1116.38 1909.89L1115.99 1908.96ZM1007.47 1981.47C976.412 2012.53 951.773 2049.41 934.963 2089.99L935.886 2090.38C952.646 2049.91 977.212 2013.15 1008.18 1982.18L1007.47 1981.47ZM934.963 2089.99C918.152 2130.58 909.5 2174.07 909.5 2218L910.5 2218C910.5 2174.2 919.126 2130.84 935.886 2090.38L934.963 2089.99ZM910 2218.5H1244V2217.5H910V2218.5ZM1244.5 2218V1884H1243.5V2218H1244.5ZM358.5 1588C358.5 1544.07 349.848 1500.58 333.038 1459.99L332.114 1460.38C348.874 1500.84 357.5 1544.2 357.5 1588H358.5ZM333.038 1459.99C316.228 1419.41 291.588 1382.53 260.527 1351.47L259.82 1352.18C290.788 1383.15 315.354 1419.91 332.114 1460.38L333.038 1459.99ZM260.527 1351.47C229.466 1320.41 192.591 1295.77 152.008 1278.96L151.625 1279.89C192.087 1296.65 228.852 1321.21 259.82 1352.18L260.527 1351.47ZM152.008 1278.96C111.424 1262.15 67.9272 1253.5 24 1253.5L24 1254.5C67.7959 1254.5 111.163 1263.13 151.625 1279.89L152.008 1278.96ZM23.5 1254L23.5 1588L24.5 1588L24.5 1254L23.5 1254ZM24 1588.5H358V1587.5H24V1588.5ZM109 2.05644e-08L109 742L110 742L110 -2.05644e-08L109 2.05644e-08ZM109 958L109 2268L110 2268L110 958L109 958ZM1159 4.8173e-08L1159 1267L1160 1267L1160 -4.8173e-08L1159 4.8173e-08ZM1159 1483L1159 2376L1160 2376L1160 1483L1159 1483ZM41 2376.5H177V2375.5H41V2376.5Z" fill="#212121"/>
</svg>
