<svg width="1280" height="2376" viewBox="0 0 1280 2376" fill="none" xmlns="http://www.w3.org/2000/svg">
<path d="M183 2376V2376.5H183.5V2376H183ZM47 2376L46.5 2376L46.5 2376.5H47V2376ZM1250 490H1250.5V489.5L1250 489.5L1250 490ZM916 824L915.5 824L915.5 824.5H916V824ZM1250 824V824.5H1250.5V824H1250ZM1250 1884H1250.5V1883.5L1250 1883.5L1250 1884ZM916 2218L915.5 2218L915.5 2218.5H916V2218ZM1250 2218V2218.5H1250.5V2218H1250ZM364 1588V1588.5H364.5V1588H364ZM30 1254L30 1253.5L29.5 1253.5L29.5 1254L30 1254ZM30 1588L29.5 1588L29.5 1588.5H30V1588ZM0 446V445.5H-0.5V446H0ZM1280 446H1280.5V445.5H1280V446ZM1280 2376V2376.5H1280.5V2376H1280ZM0 2376H-0.5V2376.5H0V2376ZM222.5 850C222.5 909.371 174.371 957.5 115 957.5V958.5C174.923 958.5 223.5 909.923 223.5 850H222.5ZM115 957.5C55.6294 957.5 7.5 909.371 7.5 850H6.5C6.5 909.923 55.0771 958.5 115 958.5V957.5ZM7.5 850C7.5 790.629 55.6294 742.5 115 742.5V741.5C55.0771 741.5 6.5 790.077 6.5 850H7.5ZM115 742.5C174.371 742.5 222.5 790.629 222.5 850H223.5C223.5 790.077 174.923 741.5 115 741.5V742.5ZM222.5 2376C222.5 2435.37 174.371 2483.5 115 2483.5V2484.5C174.923 2484.5 223.5 2435.92 223.5 2376H222.5ZM115 2483.5C55.6294 2483.5 7.49997 2435.37 7.49997 2376H6.49997C6.49997 2435.92 55.0771 2484.5 115 2484.5V2483.5ZM7.49997 2376C7.49997 2316.63 55.6294 2268.5 115 2268.5V2267.5C55.0771 2267.5 6.49997 2316.08 6.49997 2376H7.49997ZM115 2268.5C174.371 2268.5 222.5 2316.63 222.5 2376H223.5C223.5 2316.08 174.923 2267.5 115 2267.5V2268.5ZM1272.5 1375C1272.5 1434.37 1224.37 1482.5 1165 1482.5V1483.5C1224.92 1483.5 1273.5 1434.92 1273.5 1375H1272.5ZM1165 1482.5C1105.63 1482.5 1057.5 1434.37 1057.5 1375H1056.5C1056.5 1434.92 1105.08 1483.5 1165 1483.5V1482.5ZM1057.5 1375C1057.5 1315.63 1105.63 1267.5 1165 1267.5V1266.5C1105.08 1266.5 1056.5 1315.08 1056.5 1375H1057.5ZM1165 1267.5C1224.37 1267.5 1272.5 1315.63 1272.5 1375H1273.5C1273.5 1315.08 1224.92 1266.5 1165 1266.5V1267.5ZM182.5 850C182.5 887.279 152.279 917.5 115 917.5V918.5C152.831 918.5 183.5 887.832 183.5 850H182.5ZM115 917.5C77.7207 917.5 47.5 887.279 47.5 850H46.5C46.5 887.832 77.1685 918.5 115 918.5V917.5ZM47.5 850C47.5 812.721 77.7207 782.5 115 782.5V781.5C77.1685 781.5 46.5 812.168 46.5 850H47.5ZM115 782.5C152.279 782.5 182.5 812.721 182.5 850H183.5C183.5 812.168 152.831 781.5 115 781.5V782.5ZM183.5 2376C183.5 2367 181.728 2358.1 178.286 2349.79L177.362 2350.17C180.754 2358.36 182.5 2367.14 182.5 2376H183.5ZM178.286 2349.79C174.843 2341.48 169.798 2333.92 163.437 2327.56L162.73 2328.27C168.998 2334.54 173.97 2341.98 177.362 2350.17L178.286 2349.79ZM163.437 2327.56C157.076 2321.2 149.525 2316.16 141.214 2312.71L140.831 2313.64C149.021 2317.03 156.462 2322 162.73 2328.27L163.437 2327.56ZM141.214 2312.71C132.903 2309.27 123.996 2307.5 115 2307.5L115 2308.5C123.864 2308.5 132.642 2310.25 140.831 2313.64L141.214 2312.71ZM115 2307.5C106.004 2307.5 97.097 2309.27 88.7862 2312.71L89.1688 2313.64C97.3583 2310.25 106.136 2308.5 115 2308.5L115 2307.5ZM88.7862 2312.71C80.4754 2316.16 72.924 2321.2 66.5631 2327.56L67.2703 2328.27C73.5382 2322 80.9794 2317.03 89.1688 2313.64L88.7862 2312.71ZM66.5631 2327.56C60.2023 2333.92 55.1567 2341.48 51.7142 2349.79L52.6381 2350.17C56.0303 2341.98 61.0023 2334.54 67.2703 2328.27L66.5631 2327.56ZM51.7142 2349.79C48.2718 2358.1 46.5 2367 46.5 2376L47.5 2376C47.5 2367.14 49.2459 2358.36 52.6381 2350.17L51.7142 2349.79ZM1232.5 1375C1232.5 1412.28 1202.28 1442.5 1165 1442.5V1443.5C1202.83 1443.5 1233.5 1412.83 1233.5 1375H1232.5ZM1165 1442.5C1127.72 1442.5 1097.5 1412.28 1097.5 1375H1096.5C1096.5 1412.83 1127.17 1443.5 1165 1443.5V1442.5ZM1097.5 1375C1097.5 1337.72 1127.72 1307.5 1165 1307.5V1306.5C1127.17 1306.5 1096.5 1337.17 1096.5 1375H1097.5ZM1165 1307.5C1202.28 1307.5 1232.5 1337.72 1232.5 1375H1233.5C1233.5 1337.17 1202.83 1306.5 1165 1306.5V1307.5ZM1250 489.5C1206.07 489.5 1162.58 498.152 1121.99 514.962L1122.38 515.886C1162.84 499.126 1206.2 490.5 1250 490.5L1250 489.5ZM1121.99 514.962C1081.41 531.773 1044.53 556.412 1013.47 587.473L1014.18 588.18C1045.15 557.212 1081.91 532.646 1122.38 515.886L1121.99 514.962ZM1013.47 587.473C982.412 618.534 957.773 655.409 940.962 695.992L941.886 696.375C958.646 655.913 983.212 619.148 1014.18 588.18L1013.47 587.473ZM940.962 695.992C924.152 736.576 915.5 780.073 915.5 824L916.5 824C916.5 780.204 925.126 736.837 941.886 696.375L940.962 695.992ZM916 824.5H1250V823.5H916V824.5ZM1250.5 824V490H1249.5V824H1250.5ZM1250 1883.5C1206.07 1883.5 1162.58 1892.15 1121.99 1908.96L1122.38 1909.89C1162.84 1893.13 1206.2 1884.5 1250 1884.5L1250 1883.5ZM1121.99 1908.96C1081.41 1925.77 1044.53 1950.41 1013.47 1981.47L1014.18 1982.18C1045.15 1951.21 1081.91 1926.65 1122.38 1909.89L1121.99 1908.96ZM1013.47 1981.47C982.412 2012.53 957.773 2049.41 940.962 2089.99L941.886 2090.38C958.646 2049.91 983.212 2013.15 1014.18 1982.18L1013.47 1981.47ZM940.962 2089.99C924.152 2130.58 915.5 2174.07 915.5 2218L916.5 2218C916.5 2174.2 925.126 2130.84 941.886 2090.38L940.962 2089.99ZM916 2218.5H1250V2217.5H916V2218.5ZM1250.5 2218V1884H1249.5V2218H1250.5ZM364.5 1588C364.5 1544.07 355.848 1500.58 339.038 1459.99L338.114 1460.38C354.874 1500.84 363.5 1544.2 363.5 1588H364.5ZM339.038 1459.99C322.228 1419.41 297.588 1382.53 266.527 1351.47L265.82 1352.18C296.788 1383.15 321.354 1419.91 338.114 1460.38L339.038 1459.99ZM266.527 1351.47C235.466 1320.41 198.591 1295.77 158.008 1278.96L157.625 1279.89C198.087 1296.65 234.852 1321.21 265.82 1352.18L266.527 1351.47ZM158.008 1278.96C117.424 1262.15 73.9272 1253.5 30 1253.5L30 1254.5C73.7958 1254.5 117.163 1263.13 157.625 1279.89L158.008 1278.96ZM29.5 1254L29.5 1588L30.5 1588L30.5 1254L29.5 1254ZM30 1588.5H364V1587.5H30V1588.5ZM0 446.5H1280V445.5H0V446.5ZM1279.5 446V2376H1280.5V446H1279.5ZM1280 2375.5H0V2376.5H1280V2375.5ZM0.5 2376V446H-0.5V2376H0.5ZM115 2.05644e-08L115 742L116 742L116 -2.05644e-08L115 2.05644e-08ZM115 958L115 2268L116 2268L116 958L115 958ZM1165 0V1267H1166V0H1165ZM1165 1483V2376H1166V1483H1165ZM47 2376.5H183V2375.5H47V2376.5Z" fill="#212121"/>
</svg>
